<svg id="change_password" xmlns="http://www.w3.org/2000/svg" width="183.12" height="183.12" viewBox="0 0 183.12 183.12">
  <path id="Stroke_3" data-name="Stroke 3" d="M0,91.56c0,68.665,22.895,91.56,91.56,91.56s91.56-22.895,91.56-91.56S160.225,0,91.56,0,0,22.895,0,91.56Z" transform="translate(0 0)" fill="#f9fafa"/>
  <path id="Vector" d="M48.851,7.227,30.927.513a11.339,11.339,0,0,0-6.746,0L6.257,7.227A10.374,10.374,0,0,0,0,16.254v26.4a10.82,10.82,0,0,0,3.845,7.691L21.769,63.736a10.163,10.163,0,0,0,11.5,0L51.2,50.342a10.881,10.881,0,0,0,3.845-7.691v-26.4A10.309,10.309,0,0,0,48.851,7.227ZM29.982,35.579V44.15a2.444,2.444,0,0,1-4.888,0V35.579a8.147,8.147,0,1,1,4.888,0Z" transform="translate(63.84 58.8)" fill="#bdb7b0"/>
</svg>
