<svg id="faq" xmlns="http://www.w3.org/2000/svg" width="183.12" height="183.12" viewBox="0 0 183.12 183.12">
  <path id="Stroke_3" data-name="Stroke 3" d="M0,91.56c0,68.665,22.895,91.56,91.56,91.56s91.56-22.895,91.56-91.56S160.225,0,91.56,0,0,22.895,0,91.56Z" transform="translate(0 0)" fill="#f9fafa"/>
  <g id="vuesax_bold_messages-2" data-name="vuesax/bold/messages-2" transform="translate(56.28 56.28)">
    <g id="messages-2" transform="translate(0)">
      <path id="Vector" d="M0,0H70.56V70.56H0Z" fill="none" opacity="0"/>
      <path id="Vector-2" data-name="Vector" d="M40.878,43.6l1.147,9.29a2.926,2.926,0,0,1-4.41,2.881L27.442,49.715a1.468,1.468,0,0,1-.5-2,18.569,18.569,0,0,0,2.264-8.82c0-10.76-9.232-19.522-20.58-19.522a21.19,21.19,0,0,0-6.7,1.058A1.485,1.485,0,0,1,.041,18.669C2.716,7.967,13.006,0,25.3,0c14.347,0,25.96,10.849,25.96,24.226A23.68,23.68,0,0,1,40.878,43.6Z" transform="translate(13.424 5.88)" fill="#bdb7b0"/>
      <path id="Vector-3" data-name="Vector" d="M32.34,15.112a14.291,14.291,0,0,1-3.469,9.29,16.417,16.417,0,0,1-12.7,5.792L8.5,34.751a1.839,1.839,0,0,1-2.764-1.793l.735-5.792A14.665,14.665,0,0,1,0,15.112,14.769,14.769,0,0,1,7,2.675,16.709,16.709,0,0,1,16.17,0C25.108,0,32.34,6.762,32.34,15.112Z" transform="translate(5.88 29.665)" fill="#bdb7b0"/>
    </g>
  </g>
</svg>
