<svg id="help" xmlns="http://www.w3.org/2000/svg" width="183.12" height="183.12" viewBox="0 0 183.12 183.12">
  <path id="Stroke_3" data-name="Stroke 3" d="M0,91.56c0,68.665,22.895,91.56,91.56,91.56s91.56-22.895,91.56-91.56S160.225,0,91.56,0,0,22.895,0,91.56Z" transform="translate(0 0)" fill="#f9fafa"/>
  <path id="Icon_material-live-help" data-name="Icon material-live-help" d="M50.633,3H10.267A5.765,5.765,0,0,0,4.5,8.767V49.133A5.765,5.765,0,0,0,10.267,54.9H21.8l8.65,8.65L39.1,54.9H50.633A5.784,5.784,0,0,0,56.4,49.133V8.767A5.784,5.784,0,0,0,50.633,3Zm-17.3,46.133H27.567V43.367h5.767ZM39.3,26.787l-2.6,2.653c-2.076,2.1-3.373,3.835-3.373,8.16H27.567V36.158A11.606,11.606,0,0,1,30.94,28l3.575-3.633a5.638,5.638,0,0,0,1.7-4.065,5.767,5.767,0,0,0-11.533,0H18.917a11.533,11.533,0,0,1,23.067,0A9.175,9.175,0,0,1,39.3,26.787Z" transform="translate(61.02 58.32)" fill="#bdb7b0"/>
</svg>
