<svg id="language" xmlns="http://www.w3.org/2000/svg" width="183.12" height="183.12" viewBox="0 0 183.12 183.12">
  <path id="Stroke_3" data-name="Stroke 3" d="M0,91.56c0,68.665,22.895,91.56,91.56,91.56s91.56-22.895,91.56-91.56S160.225,0,91.56,0,0,22.895,0,91.56Z" transform="translate(0 0)" fill="#f9fafa"/>
  <path id="Icon_awesome-language" data-name="Icon awesome-language" d="M16.935,22.36c-.39-1.347-.868-3.7-.868-3.7h-.056s-.479,2.349-.868,3.7l-1.236,4.175h4.242ZM68.587,6.75H37.411V42.38H68.587a2.666,2.666,0,0,0,2.672-2.672V9.422A2.666,2.666,0,0,0,68.587,6.75ZM65.915,20.111a1.34,1.34,0,0,1-1.336,1.336H63.31a19.95,19.95,0,0,1-4.754,7.783,34.519,34.519,0,0,0,2.906,2,1.34,1.34,0,0,1,.457,1.8l-.88,1.548a1.34,1.34,0,0,1-1.859.479,38.739,38.739,0,0,1-3.942-2.772A39.266,39.266,0,0,1,51.3,35.065a1.34,1.34,0,0,1-1.859-.479l-.88-1.548a1.335,1.335,0,0,1,.468-1.8,31.763,31.763,0,0,0,2.906-2,25.836,25.836,0,0,1-2.338-2.862,1.332,1.332,0,0,1,.412-1.9l.724-.434.813-.479a1.347,1.347,0,0,1,1.781.379,21.232,21.232,0,0,0,1.937,2.327,17.031,17.031,0,0,0,3.34-4.81H45.873a1.34,1.34,0,0,1-1.336-1.336V18.33a1.34,1.34,0,0,1,1.336-1.336H53V15.212a1.34,1.34,0,0,1,1.336-1.336h1.781a1.34,1.34,0,0,1,1.336,1.336v1.781h7.126a1.34,1.34,0,0,1,1.336,1.336ZM0,9.422V39.708A2.666,2.666,0,0,0,2.672,42.38H33.848V6.75H2.672A2.666,2.666,0,0,0,0,9.422ZM6.558,33.484l6.4-18.828a1.331,1.331,0,0,1,1.269-.9h3.619a1.357,1.357,0,0,1,1.269.9l6.4,18.828a1.34,1.34,0,0,1-1.269,1.77H21.7a1.336,1.336,0,0,1-1.28-.958l-1.047-3.552h-6.7l-1.013,3.541a1.346,1.346,0,0,1-1.28.969H7.827a1.344,1.344,0,0,1-1.269-1.77Z" transform="translate(56.28 67.17)" fill="#bdb7b0"/>
</svg>
