<svg id="privacy_policy" data-name="privacy+policy" xmlns="http://www.w3.org/2000/svg" width="183.12" height="183.12" viewBox="0 0 183.12 183.12">
  <path id="Stroke_3" data-name="Stroke 3" d="M0,91.56c0,68.665,22.895,91.56,91.56,91.56s91.56-22.895,91.56-91.56S160.225,0,91.56,0,0,22.895,0,91.56Z" transform="translate(0 0)" fill="#f9fafa"/>
  <g id="vuesax_bold_shield-search" data-name="vuesax/bold/shield-search" transform="translate(54.6 54.6)">
    <path id="Vector" d="M52.675,15.536v7.819a3.148,3.148,0,0,1-4.33,2.866,19.034,19.034,0,0,0-8.566-1.028c-7.414.81-15.014,7.943-16.26,15.326a18.648,18.648,0,0,0,4.7,15.918,3.1,3.1,0,0,1-1.962,5.171c-2.149.249-4.268.187-5.451-.685L3.676,48.119A10.41,10.41,0,0,1,0,40.736v-25.2A9.939,9.939,0,0,1,5.95,6.908L23.082.491a10.941,10.941,0,0,1,6.479,0L46.694,6.908A9.916,9.916,0,0,1,52.675,15.536Z" transform="translate(7.912 6.082)" fill="#bdb7b0"/>
    <path id="Vector-2" data-name="Vector" d="M14.017,0A14.017,14.017,0,1,0,28.035,14.017,14.039,14.039,0,0,0,14.017,0Z" transform="translate(35.822 35.854)" fill="#bdb7b0"/>
    <path id="Vector-3" data-name="Vector" d="M3.115,6.233A3.217,3.217,0,0,1,.9,5.329a2.975,2.975,0,0,1-.374-.5,1.732,1.732,0,0,1-.28-.53,1.98,1.98,0,0,1-.187-.561A4.222,4.222,0,0,1,0,3.118,3.1,3.1,0,0,1,.249,1.934,3.216,3.216,0,0,1,.9.906a3.11,3.11,0,0,1,2.8-.841A1.879,1.879,0,0,1,4.3.252a1.732,1.732,0,0,1,.53.28,2.975,2.975,0,0,1,.5.374,3.216,3.216,0,0,1,.654,1.028A3.1,3.1,0,0,1,6.23,3.118a3.276,3.276,0,0,1-.9,2.212c-.156.125-.311.249-.5.374a1.732,1.732,0,0,1-.53.28,1.879,1.879,0,0,1-.592.187A3.817,3.817,0,0,1,3.115,6.233Z" transform="translate(62.3 62.297)" fill="#bdb7b0"/>
    <path id="Vector-4" data-name="Vector" d="M0,0H74.76V74.76H0Z" transform="translate(74.76 74.76) rotate(180)" fill="none" opacity="0"/>
  </g>
</svg>
